<?xml version="1.0" encoding="UTF-8" standalone="no"?><!DOCTYPE svg PUBLIC "-//W3C//DTD SVG 1.1//EN" "http://www.w3.org/Graphics/SVG/1.1/DTD/svg11.dtd"><svg width="100%" height="100%" viewBox="0 0 80 110" version="1.1" xmlns="http://www.w3.org/2000/svg" xmlns:xlink="http://www.w3.org/1999/xlink" xml:space="preserve" xmlns:serif="http://www.serif.com/" style="fill-rule:evenodd;clip-rule:evenodd;stroke-linejoin:round;stroke-miterlimit:2;"><path d="M79.167,39.479c-0,-14.167 -7.5,-27.083 -19.584,-34.167l-0.416,0c-12.084,-7.083 -27.084,-7.083 -39.167,0l-0.417,0c-12.083,7.084 -19.583,20 -19.583,34.167c0,14.167 7.5,27.083 19.583,34.167l0.417,-0c5.417,3.333 11.25,5 17.5,5.416l0,12.084l-12.083,-0c-1.25,-0 -2.084,0.833 -2.084,2.083c0,1.25 0.834,2.083 2.084,2.083l12.083,0l0,12.084c0,1.25 0.833,2.083 2.083,2.083c1.25,0 2.084,-0.833 2.084,-2.083l-0,-12.084l12.083,0c1.25,0 2.083,-0.833 2.083,-2.083c0,-1.25 -0.833,-2.083 -2.083,-2.083l-12.083,-0l-0,-12.084c6.25,-0.416 12.083,-2.083 17.5,-5l0.416,0c12.084,-7.083 19.584,-20.416 19.584,-34.583Zm-4.167,-1.25l-19.583,7.917l4.583,-35.834c9.167,6.667 14.583,16.667 15,27.917Zm-37.083,15.417l-11.25,-8.75l1.666,-14.167l12.917,-5.417l11.25,8.75l-1.667,14.167l-12.916,5.417Zm1.666,21.25c-5.833,-0 -11.666,-1.25 -16.666,-4.167l2.916,-21.25l10.417,7.917l18.333,13.75c-5,2.5 -10,3.75 -15,3.75Zm16.667,-66.667l-2.917,21.25l-28.75,-22.083c4.584,-2.084 10,-3.334 15,-3.334c5.834,0 11.25,1.25 16.667,4.167Zm-35.417,1.25l16.667,12.917l-33.333,13.75c1.25,-10.834 7.083,-20.834 16.666,-26.667Zm-16.666,31.25l19.583,-8.333l-4.583,35.833c-9.167,-6.25 -14.584,-16.25 -15,-27.5Zm54.166,28.75l-16.666,-12.917l12.083,-5l21.25,-8.75c-1.25,10.834 -7.083,20.834 -16.667,26.667Z" style="fill-rule:nonzero;"/></svg>